# xmcd CD database file
#
# Track frame offsets:
#	150
#	30679
#	53244
#	84354
#
# Disc length: 1418 seconds
#
# Revision: 0
# Processed by: cddbd v1.5.2PL0 Copyright (c) Steve Scherf et al.
# Submitted via: CDex 1.51
#
DISCID=27058804
DTITLE=Pierre Polveche Trio - Innocence
DYEAR=2014
DGENRE=Jazz
TTITLE0=Tango Para El Maestro
TTITLE1=L'Innocente
TTITLE2=Storia Di Un Insonnia
TTITLE3=Desvairada
EXTD=YEAR: 2014
EXTT0=
EXTT1=
EXTT2=
EXTT3=
PLAYORDER=
